<svg xmlns="http://www.w3.org/2000/svg" viewBox="0 0 2106.42 1406.42"><defs><style>.cls-1,.cls-2{fill:#181a28;}.cls-1{stroke:#b1b9de;stroke-miterlimit:10;stroke-width:6.42px;}.cls-3{fill:#8a89c2;}.cls-4{fill:#2e307b;}.cls-5{fill:#8490bc;}.cls-6{fill:#ccb631;}.cls-7{fill:#161544;}.cls-8{fill:none;stroke:#000;stroke-linecap:round;stroke-linejoin:round;stroke-width:10px;}.cls-9{fill:#e8e8ea;}.cls-10{fill:#fff;}.cls-11{fill:#d4d4dd;}.cls-12{fill:#6b76a3;}.cls-13{fill:#2e3242;}.cls-14{fill:#9f702a;}</style></defs><title>Asset 2</title><g id="Layer_2" data-name="Layer 2"><g id="Layer_1-2" data-name="Layer 1"><rect class="cls-1" x="3.21" y="3.21" width="2100" height="1400" rx="12"/><g id="chandelure"><g id="fill"><path class="cls-2" d="M1976.17,467.12s31.74,72,5.42,96c0,0,38.93,157.55-33.57,205.17a190.42,190.42,0,0,0-3-36.54c.82-1.16,43.18-61.47,9.45-161,0,0-60.39-56.39-51.87-88.91l32,19V467.12l26.81,27.1Z"/><path class="cls-3" d="M1974.77,450.8a60.59,60.59,0,0,1,1.4,16.28l-14.71,27.1-26.81-27.1V500.8l-32-19s-1.69-5.62-3.81-14.71C1898.81,467.12,1922.27,405.9,1974.77,450.8Z"/><path class="cls-2" d="M1945,731.8a190.42,190.42,0,0,1,3,36.54,246.52,246.52,0,0,1-17,86.52c-16.33,40.82-62,74-102.68,85.58-42.56,12.12-80.69,1.65-120.55-2.53h0a216.36,216.36,0,0,0-3-24.08c40.35,5.89,87.51,8.66,123.55-13.11,42.1-25.44,77.3-57.48,85.47-101.65a108.56,108.56,0,0,0,1.77-20.67,122.59,122.59,0,0,0-1.44-17.64c-6.57-43-29.2-122.57-90.6-92.79-10.31,5-22.23,16.64-25.53,29.07-1.84,6.91-1,14.06,4.23,20.46,8.52,10.39,17.33,10.47,23,5.67,7.32-6.17,9.48-20.41-.81-31.07,20.68,11.24,36.54,33.77,27.16,50.49-3.2,5.6-9.2,10.58-18.95,14.21-1.27.48-2.61.94-4,1.37a41.19,41.19,0,0,1-33.43-3.9c-15.39-8.81-26.46-26.47-28.82-44.47a55.63,55.63,0,0,1,4.85-31.59,60.23,60.23,0,0,1,6.59-10.8c14.57-19.24,40.29-31.18,64.73-32.43,37.21-1.9,66.82,21.77,85.73,51.9C1936.62,700.14,1942,715.48,1945,731.8Z"/><path class="cls-4" d="M1908.81,341.7s56,62.19,66,109.14c-52.5-44.94-76,16.28-76,16.28C1891.87,437.31,1880.33,370.18,1908.81,341.7Z"/><path class="cls-2" d="M1915.54,778.35a108.56,108.56,0,0,1-1.77,20.67h0a465.45,465.45,0,0,1-81.11-42.22c9.71-3.66,15.76-8.64,18.92-14.29A511.1,511.1,0,0,0,1915.54,778.35Z"/><path class="cls-2" d="M1825.23,723.12c-5.7,4.8-14.51,4.72-23-5.67-5.25-6.4-6.07-13.55-4.23-20.46A229.5,229.5,0,0,0,1825.23,723.12Z"/><path class="cls-3" d="M1792,501.88c5.1,17.6,7.11,35.33,3.28,51.18l-27.34-37.16-10.84,30.19L1730,520.54l-18.25,31.74a208,208,0,0,1-7-36.85h0S1745.19,460,1792,501.88Z"/><path class="cls-2" d="M1795.25,553.06s5.56,69.58-25.79,82.77c0,0-1.43,12,8.12,31.36l.24.18a60.23,60.23,0,0,0-6.59,10.8A231.77,231.77,0,0,0,1738.1,649a115.21,115.21,0,0,1-4.26-19.33s-26.43-61.9-22.12-77.42L1730,520.54l27.1,25.55,10.84-30.19Z"/><path class="cls-5" d="M1795.22,754.3c-.66,29.47-13.15,63-55.41,89.2h0a147.09,147.09,0,0,0-40.46-13s55.69-150.09,0-203.88a213.49,213.49,0,0,1,38.76,22.44,231.77,231.77,0,0,1,33.13,29.14,55.57,55.57,0,0,0-4.83,31.6C1768.77,727.8,1779.84,745.46,1795.22,754.3Z"/><path class="cls-4" d="M1736.17,400.54s41,50.15,55.8,101.34c-46.78-41.85-87.22,13.55-87.22,13.55h0C1701.34,482.58,1703.55,434.55,1736.17,400.54Z"/><path class="cls-5" d="M1699.34,626.59c55.69,53.79,0,203.88,0,203.88-23.33-4-46-2.32-66.12,1.8,0,0,16.72-45.57,17.71-102.47a25.36,25.36,0,0,0-3.28-47.9c-3.88-23.8-11.55-47.93-25-70.29a164.81,164.81,0,0,1,53.76,6.58A181.84,181.84,0,0,1,1699.34,626.59Z"/><path class="cls-2" d="M1707.74,937.86c1.9,29.45-3.13,61.13-26.93,80.88,0,0-30.58-21.59-53.16-61.25a185.3,185.3,0,0,1-11.87-24.88,172,172,0,0,1-11.61-53.68,341.68,341.68,0,0,1-45.67-17.49s17.91-11.64,45.41-21.09a232,232,0,0,1,29.31-8.08c20.11-4.12,42.79-5.77,66.12-1.8a147.09,147.09,0,0,1,40.46,13c-13.13,8.14-29.13,15.57-48.54,21.95a266.75,266.75,0,0,1,13.49,48.38A213.94,213.94,0,0,1,1707.74,937.86Z"/><path class="cls-2" d="M1680.81,546.09l-4.4,72.1a164.84,164.84,0,0,0-53.72-6.58c-23.25,1-48.48,7.12-75.24,20.75L1495,570.74l52.38,10.19-15.24-59.23,8.13,5.27,18.2,11.8,36.38,23.58,27.78-29,14.16-14.76,12.64-13.17v58.06Z"/><path class="cls-6" d="M1647.65,681.9a25.36,25.36,0,1,1-6.51-.85A24.7,24.7,0,0,1,1647.65,681.9Z"/><path class="cls-7" d="M1624.48,318.8c17.57,25.06,26.89,60.79,18.86,91-4.21,15.84-16,27.86-21.25,43.37-8.07,23.79-2,46.92,14.73,65.45l-14.16,14.76c-16.73,9-45.53-57-45.53-57,9,36.39-18.63,62.36-18.63,62.36l-18.2-11.8c4.87-27.81,4.3-52.31-15.21-73.13-12.86-13.72-19.23-30.91-19.91-49.72-.92-25.37,13-39.91,20.1-62.4,11.11-35.35-16.75-63.17-20.19-96.24-3.33-31.91,12-61.38,44.5-68.68-5.75,19.1-6.56,40.67-1.17,59.9C1559.94,277.8,1601.77,286.46,1624.48,318.8Z"/><path class="cls-5" d="M1577.41,722.73a187.79,187.79,0,0,0-35.29,11.94c-8.95-31.38-10.53-66.87,5.28-102.3h0c26.76-13.63,52-19.72,75.24-20.75,13.44,22.36,21.11,46.49,25,70.29a24.7,24.7,0,0,0-6.51-.85A25.36,25.36,0,0,0,1618,716.8,247.32,247.32,0,0,0,1577.41,722.73Z"/><path class="cls-5" d="M1577.41,722.73A247.32,247.32,0,0,1,1618,716.8a25.39,25.39,0,0,0,32.91,13c-1,56.9-17.71,102.47-17.71,102.47a232,232,0,0,0-29.31,8.08h0s-44.5-45.21-61.76-105.68A187.5,187.5,0,0,1,1577.41,722.73Z"/><path class="cls-3" d="M1622.66,533.38l-27.78,29L1558.5,538.8s27.6-26,18.63-62.36C1577.13,476.41,1605.93,542.34,1622.66,533.38Z"/><path class="cls-2" d="M1442,859.38a94.51,94.51,0,0,1-17.75-6.26l-2-.93c-7.79-3.6-17.82-8.62-22.59-15.47-9.42-13.54.37-24.38,14.49-22.45,5,.69,3.3,0,4.57,4,2.29,7.16,2.34,14.17,8.26,19.35a18.66,18.66,0,0,0,1.48,1.18,22.56,22.56,0,0,0,16.08,4.29c9.89-1.36,17.34-10.15,14.12-22.76-1.75-6.84-6.14-12.71-11.91-17.61a66.9,66.9,0,0,0-13.24-8.59l-1-.53a93.91,93.91,0,0,0-26.82-8.28c-16.87-2.36-32.94,3.79-35,22.2-1.84,16.71,5.34,34.42,12.53,49.1,5.69,11.61,12.52,23.8,21.71,33.22q1.93,2,4,3.8a113.1,113.1,0,0,0,18.58,12.94c13.93,7.88,29.43,13.26,44.72,17.12,46.72,11.79,95.88,10.83,143.67,8.91a185.3,185.3,0,0,0,11.87,24.88q-17.22,3.06-34.63,4.58c-48,4.21-98.17.35-143.17-17.74a189.56,189.56,0,0,1-64.76-43.25,204.69,204.69,0,0,1-31.7-42.16c-9.28-16.28-18.38-36.42-14.92-55.63,3.66-20.27,22.51-30.45,41-35a109.84,109.84,0,0,1,50.55-.06,90.37,90.37,0,0,1,14.85,4.92c12,5.18,22.33,13,29.35,23.81a57.62,57.62,0,0,1,8,19.3c4.31,19.88-3.13,44-26.7,44.56A54.06,54.06,0,0,1,1442,859.38Z"/><path class="cls-5" d="M1511.92,753.24a138.63,138.63,0,0,1,30.23-18.57c17.26,60.47,61.76,105.67,61.76,105.67h0c-27.5,9.46-45.41,21.1-45.41,21.1-29-13.46-64.65-34.82-84.09-64.56a90.61,90.61,0,0,1-10.19-20.68h.12c.6,1.75,1.29,3.52,2.09,5.29,7.24,16,20.24,25.79,29,21.82s10-20.19,2.81-36.21C1498.27,767.06,1502.34,761.09,1511.92,753.24Z"/><path class="cls-5" d="M1511.92,753.24c-9.58,7.85-13.65,13.82-13.65,13.82-7.24-16-20.24-25.79-29-21.81-7.82,3.53-9.67,16.75-4.89,30.91h-.12c-11-32.52-1.93-73.08,48.2-122.11a255.9,255.9,0,0,1,35-21.73h0c-15.81,35.43-14.23,70.92-5.28,102.3A138.17,138.17,0,0,0,1511.92,753.24Z"/><path class="cls-6" d="M1498.27,767.06c7.24,16,6,32.23-2.81,36.21s-21.79-5.79-29-21.82c-.8-1.77-1.49-3.54-2.09-5.29-4.78-14.16-2.93-27.38,4.89-30.91C1478,741.27,1491,751,1498.27,767.06Z"/><path class="cls-2" d="M1446.73,802.72a297.65,297.65,0,0,1-2.21,40.37,22.57,22.57,0,0,1-16.11-4.29c-.53-.38-1-.78-1.52-1.2,3.86-13.53,6.65-28.52,6.57-43.46h0A67.51,67.51,0,0,1,1446.73,802.72Z"/><path class="cls-2" d="M1444,685s19.61,68.74,0,82.1c0,0,.37,2.18.84,6.13a90.37,90.37,0,0,0-14.85-4.92c-.71-2.52-33.48,2.85-56.19-67.34l35.62,10.87,4.13-38.88Z"/><path class="cls-3" d="M1444,685l-30.45-12.07-4.13,38.91L1373.84,701s-1-3.3-2.58-8.88h0s21.28-50.2,64.06-39.76A136.09,136.09,0,0,1,1444,685Z"/><path class="cls-2" d="M1442,859.38a213.15,213.15,0,0,1-14.54,47.2,113.14,113.14,0,0,1-18.51-12.94c-1.39-1.22-2.72-2.48-4-3.8a237.89,237.89,0,0,0,17.33-37.65l2,.93A94.23,94.23,0,0,0,1442,859.38Z"/><path class="cls-4" d="M1435.33,652.29c-42.78-10.44-64.06,39.76-64.06,39.76h0c-6.93-24.61-24.83-93.66-16-121.31C1355.26,570.74,1411.8,594.25,1435.33,652.29Z"/><path class="cls-2" d="M1385.1,901.08a189.05,189.05,0,0,0,19.76,17.54c-100.6,49.7-156-139.82-156-139.82-59.22-17-40.64-93.84-40.64-93.84l33.67,17.27,11.62-45.82L1283.65,685l17.42-19.26c25.55,67.36-24.39,113.81-24.39,113.81C1310.41,909.57,1385.1,901.08,1385.1,901.08Z"/><path class="cls-3" d="M1301.07,665.7,1283.65,685l-30.19-28.55-11.62,45.82L1208.17,685a213.19,213.19,0,0,1,1.07-21.59s28.17-58.47,80.29-36.78C1291.61,643.8,1295.18,658.26,1301.07,665.7Z"/><path class="cls-4" d="M1289.46,511.25s-5.62,68,.07,115.34c-52.12-21.69-80.29,36.78-80.29,36.78C1212.76,625.65,1227.56,548.22,1289.46,511.25Z"/><path class="cls-8" d="M1739.8,843.5c-13.13,8.14-29.13,15.57-48.54,22a267.48,267.48,0,0,1,13.49,48.35,216.36,216.36,0,0,1,3,24.08c1.9,29.45-3.13,61.13-26.93,80.88,0,0-30.58-21.59-53.16-61.25a185.3,185.3,0,0,1-11.87-24.88A172,172,0,0,1,1604.18,879a341.68,341.68,0,0,1-45.67-17.49c-29-13.46-64.65-34.82-84.09-64.56a90.61,90.61,0,0,1-10.19-20.68c-11-32.52-1.93-73.08,48.2-122.11a255.9,255.9,0,0,1,35-21.73c26.76-13.63,52-19.72,75.24-20.75a165,165,0,0,1,53.74,6.56,182.82,182.82,0,0,1,23,8.4A213.49,213.49,0,0,1,1738.17,649a231.77,231.77,0,0,1,33.13,29.14"/><path class="cls-8" d="M1795.22,754.3c-.66,29.47-13.15,63-55.41,89.2"/><path class="cls-8" d="M1558.5,861.44s17.91-11.64,45.41-21.09a232,232,0,0,1,29.31-8.08c20.11-4.12,42.79-5.77,66.12-1.8a147.09,147.09,0,0,1,40.46,13h0"/><path class="cls-8" d="M1699.34,830.47s55.69-150.09,0-203.88"/><path class="cls-8" d="M1647.65,681.9c-3.88-23.8-11.55-47.93-25-70.29"/><path class="cls-8" d="M1633.22,832.27s16.72-45.57,17.71-102.47"/><path class="cls-8" d="M1603.91,840.34s-44.5-45.2-61.76-105.67c-9-31.38-10.53-66.87,5.28-102.3h0L1495,570.75l52.4,10.18-15.24-59.23,8.13,5.27,18.2,11.8,36.38,23.58,27.78-29,14.16-14.76,12.64-13.17v58.06l31.35-17.42-4.4,72.13"/><path class="cls-8" d="M1464.34,776.16c.6,1.75,1.29,3.52,2.09,5.29,7.24,16,20.24,25.79,29,21.82s10-20.19,2.81-36.21-20.24-25.79-29-21.81C1461.41,748.8,1459.56,762,1464.34,776.16Z"/><path class="cls-8" d="M1647.65,681.9a25.36,25.36,0,1,1-6.51-.85A24.7,24.7,0,0,1,1647.65,681.9Z"/><path class="cls-8" d="M1498.27,767.06s4.07-6,13.65-13.82a138.63,138.63,0,0,1,30.23-18.57,187.5,187.5,0,0,1,35.26-11.94A247.32,247.32,0,0,1,1618,716.8"/><path class="cls-8" d="M1510.1,728.53a70.21,70.21,0,0,0,1.82,24.71c2.39,8.53,7.23,17,16.76,21"/><path class="cls-8" d="M1578.62,692.05a161.38,161.38,0,0,0-1.21,30.68c.82,11.19,3.53,22,10.47,25.83"/><path class="cls-8" d="M1540.3,527c4.87-27.81,4.3-52.31-15.21-73.13-12.86-13.72-19.23-30.91-19.91-49.72-.92-25.37,13-39.91,20.1-62.4,11.11-35.35-16.75-63.17-20.19-96.24-3.33-31.91,12-61.38,44.5-68.68-5.75,19.1-6.56,40.67-1.17,59.9,11.52,41.1,53.35,49.76,76.06,82.1,17.57,25.06,26.89,60.79,18.86,91-4.21,15.84-16,27.86-21.25,43.37-8.07,23.79-2,46.92,14.73,65.45"/><path class="cls-8" d="M1615.78,932.61c-47.79,1.92-97,2.88-143.67-8.91-15.29-3.86-30.79-9.24-44.72-17.12a113.14,113.14,0,0,1-18.51-12.94c-1.39-1.22-2.72-2.48-4-3.8-9.19-9.42-16-21.61-21.71-33.22-7.19-14.68-14.37-32.39-12.53-49.1,2-18.41,18.11-24.56,35-22.2a93.5,93.5,0,0,1,26.77,8.28l1.07.53a66.9,66.9,0,0,1,13.24,8.59c5.77,4.9,10.16,10.77,11.91,17.61,3.22,12.61-4.23,21.4-14.12,22.76a22.55,22.55,0,0,1-16.1-4.29c-.53-.38-1-.78-1.52-1.2-5.92-5.18-6-12.19-8.26-19.35-1.27-3.94.44-3.29-4.57-4-14.12-1.93-23.91,8.91-14.49,22.45,4.77,6.85,14.8,11.87,22.59,15.47l2,.93a94.51,94.51,0,0,0,17.75,6.26,54.11,54.11,0,0,0,13.54,1.48c23.57-.61,31-24.68,26.7-44.56a57.62,57.62,0,0,0-8-19.3c-7-10.79-17.4-18.63-29.35-23.81a90.37,90.37,0,0,0-14.85-4.92,109.84,109.84,0,0,0-50.55.06c-18.46,4.51-37.31,14.69-41,35-3.46,19.21,5.64,39.35,14.92,55.63A204.55,204.55,0,0,0,1385,901.1a189.56,189.56,0,0,0,64.76,43.25c45,18.09,95.19,22,143.17,17.74q17.4-1.53,34.63-4.58"/><path class="cls-8" d="M1385.1,901.08s-74.69,8.49-108.42-121.57c0,0,49.94-46.45,24.39-113.81L1283.65,685l-30.19-28.55-11.62,45.82L1208.17,685s-18.58,76.84,40.64,93.84c0,0,55.45,189.52,156,139.82"/><path class="cls-8" d="M1208.17,685a213.19,213.19,0,0,1,1.07-21.59c3.52-37.72,18.32-115.15,80.22-152.12,0,0-5.62,68,.07,115.34,2.08,17.21,5.65,31.67,11.54,39.11"/><path class="cls-8" d="M1209.24,663.37s28.17-58.47,80.29-36.78h0"/><path class="cls-8" d="M1442,859.37h0a213.23,213.23,0,0,1-14.54,47.21"/><path class="cls-8" d="M1446.73,802.72a297.65,297.65,0,0,1-2.21,40.37"/><path class="cls-8" d="M1430,768.27c-.71-2.52-33.48,2.85-56.19-67.34l35.62,10.87,4.13-38.88L1444,685s19.61,68.74,0,82.1c0,0,.37,2.18.84,6.13h0"/><path class="cls-8" d="M1426.92,837.6c3.86-13.53,6.65-28.52,6.57-43.46"/><path class="cls-8" d="M1404.86,889.8a237.89,237.89,0,0,0,17.33-37.65"/><path class="cls-8" d="M1373.84,700.93s-1-3.3-2.58-8.88c-6.93-24.61-24.83-93.66-16-121.31,0,0,56.54,23.51,80.07,81.55A136.3,136.3,0,0,1,1444,685"/><path class="cls-8" d="M1371.27,692.05s21.28-50.2,64.06-39.76"/><path class="cls-8" d="M1558.5,538.8s27.6-26,18.63-62.36c0,0,28.8,65.93,45.53,57"/><path class="cls-8" d="M1704.75,913.8c40.35,5.89,87.51,8.66,123.55-13.11,42.1-25.44,77.3-57.48,85.47-101.65a108.56,108.56,0,0,0,1.77-20.67,122.59,122.59,0,0,0-1.44-17.64c-6.57-43-29.2-122.57-90.6-92.79-10.31,5-22.23,16.64-25.53,29.07-1.84,6.91-1,14.06,4.23,20.46,8.52,10.39,17.33,10.47,23,5.67,7.32-6.17,9.48-20.41-.81-31.07,20.68,11.24,36.54,33.77,27.16,50.49-3.14,5.63-9.14,10.61-18.89,14.24-1.27.48-2.61.94-4,1.37a41.19,41.19,0,0,1-33.43-3.9c-15.39-8.81-26.46-26.47-28.82-44.47a55.63,55.63,0,0,1,4.85-31.59,60.23,60.23,0,0,1,6.59-10.8c14.57-19.24,40.29-31.18,64.73-32.43,37.21-1.9,66.82,21.77,85.73,51.9,8.34,13.3,13.75,28.64,16.76,44.91a190.42,190.42,0,0,1,3,36.54,246.52,246.52,0,0,1-17,86.52c-16.33,40.82-62,74-102.68,85.58-42.56,12.12-80.69,1.65-120.55-2.53"/><path class="cls-8" d="M1851.57,742.54h0a510.68,510.68,0,0,0,64,35.81"/><path class="cls-8" d="M1798,697a229.77,229.77,0,0,0,27.26,26.13"/><path class="cls-8" d="M1738.1,649a115.21,115.21,0,0,1-4.26-19.33s-26.43-61.9-22.12-77.42L1730,520.54l27.1,25.55,10.84-30.19,27.34,37.16s5.56,69.58-25.79,82.77c0,0-1.43,12,8.12,31.36"/><path class="cls-8" d="M1913.75,799a465.62,465.62,0,0,1-81.09-42.22"/><path class="cls-8" d="M1711.72,552.28a208,208,0,0,1-7-36.85c-3.4-32.85-1.19-80.88,31.43-114.89,0,0,41,50.15,55.8,101.34,5.1,17.6,7.11,35.33,3.28,51.18"/><path class="cls-8" d="M1704.75,515.43s40.44-55.4,87.22-13.55h0"/><path class="cls-8" d="M1945,731.8h0c.82-1.16,43.18-61.47,9.45-161,0,0-60.39-56.39-51.87-88.91l32,19V467.12l26.81,27.1,14.71-27.1s31.74,72,5.42,96c0,0,38.93,157.55-33.57,205.17"/><path class="cls-8" d="M1902.62,481.8s-1.69-5.62-3.81-14.71c-6.94-29.81-18.48-96.94,10-125.42,0,0,56,62.19,66,109.14a60.59,60.59,0,0,1,1.4,16.28"/><path class="cls-8" d="M1898.81,467.12s23.46-61.22,76-16.28"/></g></g><g id="litwick"><g id="fill-2" data-name="fill"><path class="cls-9" d="M428.61,929.65c.91.84,45.82,42.78,37.39,60.41s-42.31-23.31-43-24.2C425.19,952.63,427.1,940.11,428.61,929.65Z"/><path class="cls-10" d="M448.58,804.57c5,53.07-2.77,82.88-16.09,96.24h0c-33.22,33.31-101-35.72-91.91-101.21,0,0-39.48,141.67-102.19,83.61,0,0-56.33,94.36-105.94,62.64-5.69-3.63-11.29-8.93-16.71-16.22-8-10.76-15.61-25.88-22.51-46.42-31.53-93.88-7.68-153.1,27.17-187.6-1.57,1.79-62.69,72.64,128.44,72.64,192.35,0,133.66-87.93,132.92-89C416,702,442.58,740.66,448.58,804.57Z"/><path class="cls-11" d="M408.13,1036.24s63.68,66.46-6,94.33S352.2,1093,281,1134.83s-62.71-34.87-135.48-6.19-79.8-81.83-19.77-92.4l1.52-.21c-3.31-23.44-.59-52.1,2-70.73h0c1.62-11.68,3.2-19.41,3.2-19.41,49.62,31.69,106-62.67,106-62.67,62.71,58.06,102.19-83.61,102.19-83.61-9.12,65.49,58.69,134.52,91.91,101.21-.06.47-1.45,12-3.88,28.83-1.51,10.46-3.42,23-5.65,36.21C418.93,989.67,413.85,1015.76,408.13,1036.24ZM337.49,926.6c0-13.12-6.77-24-15.52-25.57a8.62,8.62,0,0,0-1-.15h-1.88c-9.55.46-17.2,11.83-17.2,25.77,0,14.24,8,25.78,17.81,25.78S337.49,940.84,337.49,926.6Z"/><path class="cls-12" d="M381.76,679.21c.74,1.11,59.43,89-132.92,89-191.13,0-130-70.85-128.44-72.64h0C143.33,673,171,661,190.78,656.77l2.68-.16C195.65,693.43,215.4,715,264.31,694c24.28-10.46,40.1-24.6,49.73-40.72,23.5,4.26,47,12.23,67.71,26Z"/><path class="cls-6" d="M322,901c8.75,1.62,15.52,12.45,15.52,25.57,0,14.24-8,25.78-17.81,25.78s-17.81-11.54-17.81-25.78c0-13.94,7.65-25.31,17.2-25.77a11,11,0,1,0,2.9.2Z"/><path d="M322,901a11,11,0,1,1-2.9-.2H321C321.29,900.88,321.63,901,322,901Z"/><path d="M320.51,900.84h-.76A3.86,3.86,0,0,1,320.51,900.84Z"/><path d="M319.6,900.81h0Z"/><path class="cls-4" d="M277.87,471s79,110.64,36.17,182.25c-9.64,16.12-25.45,30.26-49.73,40.75-48.9,21-68.66-.5-70.85-37.32C189.72,594,236.9,487.06,277.87,471ZM264.31,659.48c33.27-31.36,0-97.94,0-97.94C228.68,586,231,690.83,264.31,659.48Z"/><path class="cls-3" d="M264.31,561.54s33.27,66.58,0,97.94S228.68,586,264.31,561.54Z"/><path class="cls-9" d="M132.45,945.86s-1.58,7.73-3.2,19.41h0c-.5,1.22-18.19,44-43.95,35.6-26.13-8.52,30.45-71.26,30.45-71.26A63.42,63.42,0,0,0,132.45,945.86Z"/><path class="cls-8" d="M120.4,695.58C143.33,673,171,661,190.78,656.77"/><path class="cls-8" d="M432.49,900.82c-33.22,33.31-101-35.72-91.91-101.21,0,0-39.48,141.67-102.19,83.61,0,0-56.33,94.36-105.94,62.64-5.69-3.63-11.29-8.93-16.71-16.22-8-10.76-15.61-25.88-22.51-46.42C61.7,789.33,85.55,730.11,120.4,695.61"/><path class="cls-8" d="M381.76,679.21C416,702,442.58,740.66,448.58,804.57c5,53.07-2.77,82.88-16.09,96.24"/><path class="cls-8" d="M314,653.21c23.5,4.26,47,12.23,67.71,26"/><path class="cls-8" d="M120.4,695.58h0c-1.57,1.79-62.69,72.64,128.44,72.64,192.35,0,133.66-87.93,132.92-89h0"/><path class="cls-8" d="M193.46,656.61C189.72,594,236.9,487.06,277.87,471c0,0,79,110.64,36.17,182.25-9.64,16.12-25.45,30.26-49.73,40.75C215.4,715,195.65,693.43,193.46,656.61Z"/><path class="cls-8" d="M432.49,900.81h0c-.06.47-1.45,12-3.88,28.83-1.51,10.46-3.42,23-5.65,36.21-4,23.81-9.11,49.9-14.83,70.38-5.35,19.15-11.26,33.4-17.38,36.27"/><path class="cls-8" d="M129.24,965.3c-2.59,18.63-5.31,47.29-2,70.73,2.35,16.56,7.71,30.51,18.25,36.48"/><path class="cls-8" d="M132.45,945.86s-1.58,7.73-3.2,19.41"/><path class="cls-8" d="M408.13,1036.24s63.68,66.46-6,94.33S352.2,1093,281,1134.83s-62.71-34.87-135.48-6.19-79.8-81.83-19.77-92.4"/><path class="cls-8" d="M428.6,929.64h0c.91.84,45.82,42.78,37.39,60.41s-42.31-23.31-43-24.2h0"/><path class="cls-8" d="M115.74,929.64s-56.58,62.74-30.45,71.26c25.76,8.39,43.45-34.38,44-35.6h0"/><path class="cls-8" d="M225.23,962.05s-43.36,26.63,20.9,24.61,27.1-24.61,27.1-24.61"/><path class="cls-8" d="M321,900.88a8.62,8.62,0,0,1,1,.15c8.75,1.62,15.52,12.45,15.52,25.57,0,14.24-8,25.78-17.81,25.78s-17.81-11.54-17.81-25.78c0-13.94,7.65-25.31,17.2-25.77"/><path class="cls-8" d="M321,900.88a8.62,8.62,0,0,1,1,.15,11,11,0,1,1-2.9-.2h.53"/><path class="cls-8" d="M319.75,900.81h.76"/><path class="cls-8" d="M264.31,561.54s33.27,66.58,0,97.94S228.68,586,264.31,561.54Z"/></g></g><g id="lampent"><g id="fill-3" data-name="fill"><path class="cls-2" d="M1175.53,595s-22.29,225-191.15,303.34L972.2,880.12s195.56-149.62,134.43-302.91C1106.63,577.21,1149.21,570.24,1175.53,595Z"/><path class="cls-2" d="M863.4,890.36c16.45-21.21,44.74-45.77,90-52.52a171.92,171.92,0,0,1,31-1.7,240.61,240.61,0,0,1-20.64,31.39l8.41,12.59,12.18,18.24,19.75,29.56c39.18-14.71,63.79-3.73,63.79-3.73,1.55,28-40.26,64.63-40.26,64.63,21.16,44.39,0,61.17,0,61.17-14.42,12.65-59.87-17.81-59.87-17.81-27.33,28.9-82,13.93-82,13.93-1-26.32,45.72-71.22,45.72-71.22L911.29,939.5l-10.17-17.82a308.92,308.92,0,0,1-57.19,2.52h0S849.31,908.5,863.4,890.36Z"/><path class="cls-13" d="M1053.21,631.79c16.53,28.93-31.67,63.76-60.82,81.42-20.57-44-60.95-68.14-60.95-68.14,52.67-17.92,96.11-25.54,114.12-19C1048.09,627.94,1050.65,629.84,1053.21,631.79Z"/><path class="cls-2" d="M1045.56,626.08c-18-6.55-61.45,1.07-114.12,19a832.9,832.9,0,0,0-107.07,45.46c-13.13,6.67-26.21,13.75-39,21.2a634.23,634.23,0,0,0-72.12,48.17h0c-37.34,29.15-67.7,61.33-83.91,94.84,0,0-40.65-121.94,97.55-267.1,0,0-53.42-94.06-27.88-139.35,0,0,67.36,7,99.88,102.19C798.89,550.5,899.85,519.08,1045.56,626.08Z"/><path class="cls-5" d="M992.39,713.21c14.65,31.37,19.25,72.85-8,122.93a171.92,171.92,0,0,0-31,1.7s-.07-49.28-30.27-55.08-48.77-26.71-47.61-54.58-51.16-37.65-51.16-37.65a832.9,832.9,0,0,1,107.07-45.46S971.82,669.18,992.39,713.21Zm-55.81,12.26c6.74-7.17,3.79-20.88-6.58-30.64-9.52-9-22-11.46-29.18-6.26-.25.17-.49.36-.73.56a11.8,11.8,0,0,0-1,1l-.05.06c-.23.25-.45.5-.65.76-5.88,7.34-2.78,20.45,7.23,29.87C916,730.53,929.85,732.63,936.58,725.47Z"/><path class="cls-4" d="M923.14,782.76c30.2,5.8,30.27,55.08,30.27,55.08-45.27,6.75-73.56,31.31-90,52.52-1-.05-75.73-3.54-56.83-68.12,19-65,15.14-79.35-21.24-110.51,12.83-7.45,25.91-14.53,39-21.2,0,0,52.32,9.78,51.16,37.65S893,777,923.14,782.76Zm-45.29,66.31c25.55-5.93-13.33-49.48-34-48C843.89,801,852.3,855,877.85,849.07Z"/><path d="M914.62,689.61a11,11,0,1,1-16.25,1.29c.2-.26.42-.51.65-.76a14.39,14.39,0,0,1,1.07-1c.24-.2.48-.39.73-.56A11,11,0,0,1,914.62,689.61Z"/><path class="cls-2" d="M901.08,921.68l10.17,17.82c-61.2,39.21-146.67,97.61-164.67,174.63-5.78,24.7-4.33,74.17,27.89,83.62,17.31,5.07,26.9.89,33-17.84,11.47-35.12-30.32-39.82,1.54-69.74,46.93-44.07,89.42,3.06,83.1,51.47-6.69,51.15-51.93,108.13-108,100.11-77-11-94.16-107.8-75.1-170.37C734.69,1007.18,822.31,950.52,901.08,921.68Z"/><path d="M900.09,689.13a14.39,14.39,0,0,0-1.07,1l.05-.06A11.36,11.36,0,0,1,900.09,689.13Z"/><path class="cls-6" d="M905.6,720.77c-10-9.42-13.11-22.53-7.23-29.87a11,11,0,1,0,2.45-2.33c7.2-5.2,19.66-2.7,29.18,6.26,10.37,9.76,13.32,23.47,6.58,30.64S916,730.53,905.6,720.77Z"/><path class="cls-3" d="M843.89,801c20.63-1.45,59.51,42.1,34,48S843.89,801,843.89,801Z"/><path class="cls-5" d="M863.4,890.36c-14.09,18.14-19.51,33.83-19.51,33.83h0c-61.5-3.51-94.88-29.35-112.73-59.54C703.55,818,713.08,760.93,713.25,759.92h0a635.16,635.16,0,0,1,72.08-48.18c36.38,31.16,40.27,45.48,21.24,110.51C787.67,886.82,862.37,890.31,863.4,890.36Zm-84.95-71.69c6.74-7.16,3.79-20.88-6.58-30.63-9.74-9.16-22.55-11.57-29.65-5.92l-.39.32c-.14.12-.28.24-.42.38s-.32.3-.48.47h0c-.23.25-.45.5-.66.77-5.87,7.35-2.77,20.45,7.24,29.87C757.84,823.73,771.76,825.84,778.45,818.67Z"/><path d="M756.49,782.81a11,11,0,1,1-16.26,1.3c.21-.27.43-.52.66-.77l.52-.52c.14-.14.28-.26.42-.38l.39-.32A11,11,0,0,1,756.49,782.81Z"/><path class="cls-14" d="M742.22,782.12l-.39.32Z"/><path d="M741.41,782.82l-.52.52h0A6.33,6.33,0,0,1,741.41,782.82Z"/><path class="cls-6" d="M740.23,784.11a11,11,0,1,0,2-2c7.1-5.65,19.91-3.24,29.65,5.92,10.37,9.75,13.32,23.47,6.58,30.63s-20.61,5.06-31-4.69C737.46,804.56,734.36,791.46,740.23,784.11Z"/><path class="cls-13" d="M713.25,759.92c-.17,1-9.7,58.07,17.91,104.74-43.91,15.71-125.95,39.76-101.82-9.9C645.55,821.25,675.91,789.07,713.25,759.92Z"/><path class="cls-8" d="M713.25,759.92c-37.34,29.15-67.7,61.33-83.91,94.84-24.13,49.66,57.91,25.61,101.82,9.9"/><path class="cls-8" d="M992.39,713.21c29.15-17.66,77.35-52.49,60.82-81.42-1.43-2.5-4-4.4-7.65-5.71-18-6.55-61.45,1.07-114.12,19a832.9,832.9,0,0,0-107.07,45.46c-13.13,6.67-26.21,13.75-39,21.2a634.23,634.23,0,0,0-72.12,48.17"/><path class="cls-8" d="M629.34,854.76s-40.65-121.94,97.55-267.1c0,0-53.42-94.06-27.88-139.35,0,0,67.36,7,99.88,102.19,0,0,101-31.42,246.67,75.58,2.53,1.86,5.09,3.76,7.65,5.71"/><path class="cls-8" d="M713.25,759.91h0c-.17,1-9.7,58.07,17.91,104.74,17.85,30.19,51.23,56,112.73,59.54a308.92,308.92,0,0,0,57.19-2.52l10.17,17.82,20.19,35.39s-46.75,44.91-45.68,71.23c0,0,54.71,15,82.07-13.93,0,0,45.42,30.46,59.87,17.81,0,0,21.16-16.78,0-61.17,0,0,41.81-36.61,40.26-64.63,0,0-24.61-11-63.79,3.73l-19.75-29.56-12.18-18.24-8.48-12.59a241.29,241.29,0,0,0,20.59-31.39c27.26-50.08,22.66-91.56,8-122.93-20.57-44-61-68.14-61-68.14"/><path class="cls-8" d="M843.89,924.19s5.42-15.69,19.51-33.83c16.45-21.21,44.74-45.77,90-52.52a171.92,171.92,0,0,1,31-1.7"/><path class="cls-8" d="M972.2,880.12s195.56-149.62,134.43-302.91c0,0,42.58-7,68.9,17.81,0,0-22.29,225-191.15,303.34"/><path class="cls-8" d="M901.08,921.68c-78.77,28.84-166.39,85.5-192.06,169.7-19.06,62.57-1.87,159.37,75.1,170.37,56.07,8,101.31-49,108-100.11,6.32-48.41-36.17-95.54-83.1-51.47-31.86,29.92,9.93,34.62-1.54,69.74-6.11,18.73-15.7,22.91-33,17.84-32.23-9.44-33.72-58.92-27.9-83.62,18-77,103.47-135.42,164.67-174.63"/><path class="cls-8" d="M863.41,890.36h0c-1-.05-75.73-3.54-56.83-68.12,19-65,15.14-79.35-21.24-110.51"/><path class="cls-8" d="M953.41,837.84s-.07-49.28-30.27-55.08-48.77-26.71-47.61-54.58-51.16-37.65-51.16-37.65"/><path class="cls-8" d="M843.89,801s8.41,54,34,48S864.52,799.59,843.89,801Z"/><path class="cls-8" d="M900.82,688.57c7.2-5.2,19.66-2.7,29.18,6.26,10.37,9.76,13.32,23.47,6.58,30.64s-20.61,5.06-31-4.7c-10-9.42-13.11-22.53-7.23-29.87"/><path class="cls-8" d="M899,690.14l.05-.06a11.8,11.8,0,0,1,1-1"/><path class="cls-8" d="M900.82,688.57a11,11,0,1,1-2.45,2.33"/><path class="cls-8" d="M741.83,782.44l.39-.32c7.1-5.65,19.91-3.24,29.65,5.92,10.37,9.75,13.32,23.47,6.58,30.63s-20.61,5.06-31-4.69c-10-9.42-13.11-22.52-7.24-29.87"/><path class="cls-8" d="M741.83,782.44l.39-.32a11,11,0,1,1-2,2"/><path class="cls-8" d="M740.89,783.31h0c.16-.17.32-.33.48-.47"/></g></g></g></g></svg>