<svg xmlns="http://www.w3.org/2000/svg" viewBox="0 0 1608.1 1608.1"><defs><style>.cls-1,.cls-2{fill:#181a28;}.cls-1{stroke:#b1b9de;stroke-miterlimit:10;stroke-width:6px;}.cls-3{fill:#8a89c2;}.cls-4{fill:#2e307b;}.cls-5{fill:#8490bc;}.cls-6{fill:#ccb631;}.cls-7{fill:#161544;}.cls-8{fill:none;stroke:#000;stroke-linecap:round;stroke-linejoin:round;stroke-width:10px;}.cls-9{fill:#e8e8ea;}.cls-10{fill:#fff;}.cls-11{fill:#d4d4dd;}.cls-12{fill:#6b76a3;}.cls-13{fill:#2e3242;}.cls-14{fill:#9f702a;}</style></defs><title>Asset 1</title><g id="Layer_2" data-name="Layer 2"><g id="Layer_1-2" data-name="Layer 1"><rect class="cls-1" x="3" y="3" width="1602.1" height="1602.1" rx="12"/><g id="chandelure"><g id="fill"><path class="cls-2" d="M1479.39,513.9s31.74,72,5.42,96c0,0,38.93,157.55-33.57,205.17a189.62,189.62,0,0,0-3-36.54c.82-1.16,43.18-61.47,9.45-161,0,0-60.39-56.39-51.87-88.91l32,19V513.9l26.81,27.1Z"/><path class="cls-3" d="M1478,497.58a59.79,59.79,0,0,1,1.4,16.28L1464.68,541l-26.81-27.1v33.72l-32-19s-1.69-5.62-3.81-14.71C1402,513.9,1425.49,452.68,1478,497.58Z"/><path class="cls-2" d="M1448.26,778.58a189.62,189.62,0,0,1,3,36.54,246.52,246.52,0,0,1-17,86.52c-16.33,40.82-62,74-102.68,85.58-42.56,12.12-80.69,1.65-120.55-2.53h0a211.74,211.74,0,0,0-3-24.08c40.35,5.89,87.51,8.66,123.55-13.11,42.1-25.44,77.3-57.48,85.47-101.65a108.56,108.56,0,0,0,1.77-20.67,121.17,121.17,0,0,0-1.44-17.64c-6.57-43-29.2-122.57-90.6-92.79-10.31,5-22.23,16.64-25.53,29.07-1.84,6.91-1,14.06,4.23,20.46,8.52,10.39,17.33,10.47,23,5.67,7.32-6.17,9.48-20.41-.81-31.07,20.68,11.24,36.54,33.77,27.16,50.49-3.2,5.6-9.2,10.58-18.95,14.21-1.27.48-2.61.94-4,1.37a41.19,41.19,0,0,1-33.43-3.9c-15.39-8.81-26.46-26.47-28.82-44.47a55.71,55.71,0,0,1,4.85-31.59,61.4,61.4,0,0,1,6.59-10.8c14.57-19.24,40.29-31.18,64.73-32.43,37.21-1.9,66.82,21.77,85.73,51.9C1439.84,746.92,1445.25,762.26,1448.26,778.58Z"/><path class="cls-4" d="M1412,388.48s56,62.19,66,109.14c-52.5-44.94-76,16.28-76,16.28C1395.09,484.09,1383.55,417,1412,388.48Z"/><path class="cls-2" d="M1418.76,825.13A108.56,108.56,0,0,1,1417,845.8h0a466.16,466.16,0,0,1-81.11-42.22c9.71-3.66,15.76-8.64,18.92-14.29A511.81,511.81,0,0,0,1418.76,825.13Z"/><path class="cls-2" d="M1328.45,769.9c-5.7,4.8-14.51,4.72-23-5.67-5.25-6.4-6.07-13.55-4.23-20.46A230.27,230.27,0,0,0,1328.45,769.9Z"/><path class="cls-3" d="M1295.19,548.66c5.1,17.6,7.11,35.33,3.28,51.18l-27.34-37.16-10.84,30.19-27.1-25.55-18.25,31.74a208.9,208.9,0,0,1-7-36.85h0S1248.41,506.81,1295.19,548.66Z"/><path class="cls-2" d="M1298.47,599.84s5.56,69.58-25.79,82.77c0,0-1.43,12,8.12,31.36l.24.18a61.4,61.4,0,0,0-6.59,10.8,231.23,231.23,0,0,0-33.13-29.14,116.21,116.21,0,0,1-4.26-19.33s-26.43-61.9-22.12-77.42l18.25-31.74,27.1,25.55,10.84-30.19Z"/><path class="cls-5" d="M1298.44,801.08c-.66,29.47-13.15,63-55.41,89.2h0a146.87,146.87,0,0,0-40.46-13s55.69-150.09,0-203.88a213.15,213.15,0,0,1,38.76,22.44A231.23,231.23,0,0,1,1274.46,725a55.73,55.73,0,0,0-4.83,31.6C1272,774.58,1283.06,792.24,1298.44,801.08Z"/><path class="cls-4" d="M1239.39,447.32s41,50.15,55.8,101.34c-46.78-41.85-87.22,13.55-87.22,13.55h0C1204.56,529.36,1206.77,481.33,1239.39,447.32Z"/><path class="cls-5" d="M1202.56,673.37c55.69,53.79,0,203.88,0,203.88-23.33-4-46-2.32-66.12,1.8,0,0,16.72-45.57,17.71-102.47a25.36,25.36,0,0,0-3.28-47.9c-3.88-23.8-11.55-47.93-25-70.29a164.78,164.78,0,0,1,53.76,6.58A180.7,180.7,0,0,1,1202.56,673.37Z"/><path class="cls-2" d="M1211,984.64c1.9,29.45-3.13,61.13-26.93,80.88,0,0-30.58-21.59-53.16-61.25A187.77,187.77,0,0,1,1119,979.39a172,172,0,0,1-11.61-53.68,342.2,342.2,0,0,1-45.67-17.49s17.91-11.64,45.41-21.09a231.23,231.23,0,0,1,29.31-8.08c20.11-4.12,42.79-5.77,66.12-1.8a146.87,146.87,0,0,1,40.46,13c-13.13,8.14-29.13,15.57-48.54,22A265.94,265.94,0,0,1,1208,960.58,213.65,213.65,0,0,1,1211,984.64Z"/><path class="cls-2" d="M1184,592.87l-4.4,72.1a164.81,164.81,0,0,0-53.72-6.58c-23.25,1-48.48,7.12-75.24,20.75l-52.42-61.62,52.38,10.19-15.24-59.23,8.13,5.27,18.2,11.8,36.38,23.58,27.78-29L1140,565.37l12.64-13.17v58.06Z"/><path class="cls-6" d="M1150.87,728.68a25.36,25.36,0,1,1-6.51-.85A24.65,24.65,0,0,1,1150.87,728.68Z"/><path class="cls-7" d="M1127.7,365.58c17.57,25.06,26.89,60.79,18.86,91-4.21,15.84-16,27.86-21.25,43.37-8.07,23.79-2,46.92,14.73,65.45l-14.16,14.76c-16.73,9-45.53-57-45.53-57,9,36.39-18.63,62.36-18.63,62.36l-18.2-11.8c4.87-27.81,4.3-52.31-15.21-73.13-12.86-13.72-19.23-30.91-19.91-49.72-.92-25.37,13-39.91,20.1-62.4,11.11-35.35-16.75-63.17-20.19-96.24-3.33-31.91,12-61.38,44.5-68.68-5.75,19.1-6.56,40.67-1.17,59.9C1063.16,324.58,1105,333.24,1127.7,365.58Z"/><path class="cls-5" d="M1080.63,769.51a187.79,187.79,0,0,0-35.29,11.94c-8.95-31.38-10.53-66.87,5.28-102.3h0c26.76-13.63,52-19.72,75.24-20.75,13.44,22.36,21.11,46.49,25,70.29a24.65,24.65,0,0,0-6.51-.85,25.38,25.38,0,0,0-23.11,35.74A247.47,247.47,0,0,0,1080.63,769.51Z"/><path class="cls-5" d="M1080.63,769.51a247.47,247.47,0,0,1,40.61-5.93,25.4,25.4,0,0,0,32.91,13c-1,56.9-17.71,102.47-17.71,102.47a231.23,231.23,0,0,0-29.31,8.08h0s-44.5-45.21-61.76-105.68A187.5,187.5,0,0,1,1080.63,769.51Z"/><path class="cls-3" d="M1125.88,580.16l-27.78,29-36.38-23.58s27.6-26,18.63-62.36C1080.35,523.19,1109.15,589.12,1125.88,580.16Z"/><path class="cls-2" d="M945.17,906.16a94.76,94.76,0,0,1-17.75-6.26l-2-.93c-7.79-3.6-17.82-8.62-22.59-15.47-9.42-13.54.37-24.38,14.49-22.45,5,.69,3.3,0,4.57,4,2.29,7.16,2.34,14.17,8.26,19.35.48.42,1,.81,1.48,1.18a22.61,22.61,0,0,0,16.08,4.29c9.89-1.36,17.34-10.15,14.12-22.76-1.75-6.84-6.14-12.71-11.91-17.61a66.61,66.61,0,0,0-13.24-8.59l-1-.53a93.72,93.72,0,0,0-26.82-8.28c-16.87-2.36-32.94,3.79-35,22.2-1.84,16.71,5.34,34.42,12.53,49.1,5.69,11.61,12.52,23.8,21.71,33.22q2,2,4,3.8a113.53,113.53,0,0,0,18.58,12.94c13.93,7.88,29.43,13.26,44.72,17.12,46.72,11.79,95.88,10.83,143.67,8.91a187.77,187.77,0,0,0,11.87,24.88q-17.21,3.06-34.63,4.58c-48,4.21-98.17.35-143.17-17.74a187.9,187.9,0,0,1-45-25.71,190.07,190.07,0,0,1-19.76-17.54,205,205,0,0,1-31.7-42.16c-9.28-16.28-18.38-36.42-14.92-55.63,3.66-20.27,22.51-30.45,41-35a109.84,109.84,0,0,1,50.55-.06,90.05,90.05,0,0,1,14.85,4.92c12,5.18,22.33,13,29.35,23.81a57.62,57.62,0,0,1,8,19.3c4.31,19.88-3.13,44-26.7,44.56A54.52,54.52,0,0,1,945.17,906.16Z"/><path class="cls-5" d="M1015.14,800a138.63,138.63,0,0,1,30.23-18.57c17.26,60.47,61.76,105.67,61.76,105.67h0c-27.5,9.46-45.41,21.1-45.41,21.1-29-13.46-64.65-34.82-84.09-64.56A91,91,0,0,1,967.44,823h.12c.6,1.75,1.29,3.52,2.09,5.29,7.24,16,20.24,25.79,29,21.82s10.05-20.19,2.81-36.21C1001.49,813.84,1005.56,807.87,1015.14,800Z"/><path class="cls-5" d="M1015.14,800c-9.58,7.85-13.65,13.82-13.65,13.82-7.24-16-20.24-25.79-29-21.81-7.82,3.53-9.67,16.75-4.89,30.91h-.12c-11-32.52-1.93-73.08,48.2-122.11a256.51,256.51,0,0,1,35-21.73h0c-15.81,35.43-14.23,70.92-5.28,102.3A138.64,138.64,0,0,0,1015.14,800Z"/><path class="cls-6" d="M1001.49,813.84c7.24,16,6,32.23-2.81,36.21s-21.79-5.79-29-21.82c-.8-1.77-1.49-3.54-2.09-5.29-4.78-14.16-2.93-27.38,4.89-30.91C981.25,788.05,994.25,797.82,1001.49,813.84Z"/><path class="cls-2" d="M950,849.5a297.65,297.65,0,0,1-2.21,40.37,22.59,22.59,0,0,1-16.11-4.29c-.52-.38-1-.78-1.52-1.2,3.86-13.53,6.65-28.52,6.57-43.46h0A66.33,66.33,0,0,1,950,849.5Z"/><path class="cls-2" d="M947.26,731.74s19.61,68.74,0,82.1c0,0,.37,2.18.84,6.13a90.05,90.05,0,0,0-14.85-4.92c-.71-2.52-33.48,2.85-56.19-67.34l35.62,10.87,4.13-38.88Z"/><path class="cls-3" d="M947.26,731.74l-30.45-12.07-4.13,38.91-35.62-10.84s-1-3.3-2.58-8.88h0s21.28-50.2,64.06-39.76A136.09,136.09,0,0,1,947.26,731.74Z"/><path class="cls-2" d="M945.17,906.16a213.15,213.15,0,0,1-14.54,47.2,114,114,0,0,1-18.51-12.94c-1.38-1.22-2.72-2.48-4-3.8A237.89,237.89,0,0,0,925.45,899l2,.93A95.19,95.19,0,0,0,945.17,906.16Z"/><path class="cls-4" d="M938.55,699.07c-42.78-10.44-64.06,39.76-64.06,39.76h0c-6.93-24.61-24.83-93.66-16-121.31C858.48,617.52,915,641,938.55,699.07Z"/><path class="cls-2" d="M888.32,947.86a190.07,190.07,0,0,0,19.76,17.54C807.48,1015.1,752,825.58,752,825.58c-59.22-17-40.64-93.84-40.64-93.84L745.06,749l11.62-45.82,30.19,28.55,17.42-19.26c25.55,67.36-24.39,113.81-24.39,113.81C813.63,956.35,888.32,947.86,888.32,947.86Z"/><path class="cls-3" d="M804.29,712.48l-17.42,19.26-30.19-28.55L745.06,749l-33.67-17.27a216.14,216.14,0,0,1,1.07-21.59s28.17-58.47,80.29-36.78C794.83,690.58,798.4,705,804.29,712.48Z"/><path class="cls-4" d="M792.68,558s-5.62,68,.07,115.34c-52.12-21.69-80.29,36.78-80.29,36.78C716,672.43,730.78,595,792.68,558Z"/><path class="cls-8" d="M1243,890.28c-13.13,8.14-29.13,15.57-48.54,22A265.64,265.64,0,0,1,1208,960.58a211.74,211.74,0,0,1,3,24.08c1.9,29.45-3.13,61.13-26.93,80.88,0,0-30.58-21.59-53.16-61.25A187.77,187.77,0,0,1,1119,979.41a172,172,0,0,1-11.61-53.68,342.2,342.2,0,0,1-45.67-17.49c-29-13.46-64.65-34.82-84.09-64.56A91,91,0,0,1,967.45,823c-11-32.52-1.93-73.08,48.2-122.11a256.51,256.51,0,0,1,35-21.73c26.76-13.63,52-19.72,75.24-20.75a164.91,164.91,0,0,1,53.74,6.56,182.25,182.25,0,0,1,23,8.4,213.15,213.15,0,0,1,38.76,22.44A231.23,231.23,0,0,1,1274.52,725"/><path class="cls-8" d="M1298.44,801.08c-.66,29.47-13.15,63-55.41,89.2"/><path class="cls-8" d="M1061.72,908.22s17.91-11.64,45.41-21.09a231.23,231.23,0,0,1,29.31-8.08c20.11-4.12,42.79-5.77,66.12-1.8a146.87,146.87,0,0,1,40.46,13h0"/><path class="cls-8" d="M1202.56,877.25s55.69-150.09,0-203.88"/><path class="cls-8" d="M1150.87,728.68c-3.88-23.8-11.55-47.93-25-70.29"/><path class="cls-8" d="M1136.44,879.05s16.72-45.57,17.71-102.47"/><path class="cls-8" d="M1107.13,887.12s-44.5-45.2-61.76-105.67c-8.95-31.38-10.53-66.87,5.28-102.3h0l-52.42-61.62,52.4,10.18-15.24-59.23,8.13,5.27,18.2,11.8,36.38,23.58,27.78-29L1140,565.37l12.64-13.17v58.06L1184,592.84l-4.4,72.13"/><path class="cls-8" d="M967.56,822.94c.6,1.75,1.29,3.52,2.09,5.29,7.24,16,20.24,25.79,29,21.82s10.05-20.19,2.81-36.21-20.24-25.79-29-21.81C964.63,795.58,962.78,808.78,967.56,822.94Z"/><path class="cls-8" d="M1150.87,728.68a25.36,25.36,0,1,1-6.51-.85A24.65,24.65,0,0,1,1150.87,728.68Z"/><path class="cls-8" d="M1001.49,813.84s4.07-6,13.65-13.82a138.63,138.63,0,0,1,30.23-18.57,187.5,187.5,0,0,1,35.26-11.94,247.47,247.47,0,0,1,40.61-5.93"/><path class="cls-8" d="M1013.32,775.31a70.45,70.45,0,0,0,1.82,24.71c2.39,8.53,7.23,17,16.76,21"/><path class="cls-8" d="M1081.84,738.83a162.21,162.21,0,0,0-1.21,30.68c.82,11.19,3.53,22,10.47,25.83"/><path class="cls-8" d="M1043.52,573.75c4.87-27.81,4.3-52.31-15.21-73.13-12.86-13.72-19.23-30.91-19.91-49.72-.92-25.37,13-39.91,20.1-62.4,11.11-35.35-16.75-63.17-20.19-96.24-3.33-31.91,12-61.38,44.5-68.68-5.75,19.1-6.56,40.67-1.17,59.9,11.52,41.1,53.35,49.76,76.06,82.1,17.57,25.06,26.89,60.79,18.86,91-4.21,15.84-16,27.86-21.25,43.37-8.07,23.79-2,46.92,14.73,65.45"/><path class="cls-8" d="M1119,979.39c-47.79,1.92-97,2.88-143.67-8.91-15.29-3.86-30.79-9.24-44.72-17.12a114,114,0,0,1-18.51-12.94c-1.38-1.22-2.72-2.48-4-3.8-9.19-9.42-16-21.61-21.71-33.22C879.2,888.72,872,871,873.86,854.3c2-18.41,18.11-24.56,35-22.2a93.4,93.4,0,0,1,26.77,8.28l1.07.53a66.61,66.61,0,0,1,13.24,8.59c5.77,4.9,10.16,10.77,11.91,17.61,3.22,12.61-4.23,21.4-14.12,22.76a22.62,22.62,0,0,1-16.1-4.29c-.52-.38-1-.78-1.52-1.2-5.92-5.18-6-12.19-8.26-19.35-1.27-3.94.44-3.29-4.57-4-14.12-1.93-23.91,8.91-14.49,22.45,4.77,6.85,14.8,11.87,22.59,15.47l2,.93a94.76,94.76,0,0,0,17.75,6.26,54.21,54.21,0,0,0,13.54,1.48c23.57-.61,31-24.68,26.7-44.56a57.62,57.62,0,0,0-8-19.3C970.37,833,960,825.13,948,820A90.05,90.05,0,0,0,933.17,815a109.84,109.84,0,0,0-50.55.06c-18.46,4.51-37.31,14.69-41,35-3.46,19.21,5.64,39.35,14.92,55.63a204.91,204.91,0,0,0,31.67,42.16A190.07,190.07,0,0,0,908,965.42a187.9,187.9,0,0,0,45,25.71c45,18.09,95.19,22,143.17,17.74q17.4-1.53,34.63-4.58"/><path class="cls-8" d="M888.32,947.86s-74.69,8.49-108.42-121.57c0,0,49.94-46.45,24.39-113.81l-17.42,19.26-30.19-28.55L745.06,749l-33.67-17.27S692.81,808.58,752,825.58c0,0,55.45,189.52,156,139.82"/><path class="cls-8" d="M711.39,731.74a216.14,216.14,0,0,1,1.07-21.59C716,672.43,730.78,595,792.68,558c0,0-5.62,68,.07,115.34,2.08,17.21,5.65,31.67,11.54,39.11"/><path class="cls-8" d="M712.46,710.15s28.17-58.47,80.29-36.78h0"/><path class="cls-8" d="M945.17,906.15h0a213.23,213.23,0,0,1-14.54,47.21"/><path class="cls-8" d="M950,849.5a297.65,297.65,0,0,1-2.21,40.37"/><path class="cls-8" d="M933.25,815.05c-.71-2.52-33.48,2.85-56.19-67.34l35.62,10.87,4.13-38.88,30.45,12.07s19.61,68.74,0,82.1c0,0,.37,2.18.84,6.13h0"/><path class="cls-8" d="M930.14,884.38c3.86-13.53,6.65-28.52,6.57-43.46"/><path class="cls-8" d="M908.08,936.58a237.89,237.89,0,0,0,17.33-37.65"/><path class="cls-8" d="M877.06,747.71s-1-3.3-2.58-8.88c-6.93-24.61-24.83-93.66-16-121.31,0,0,56.54,23.51,80.07,81.55a135.84,135.84,0,0,1,8.71,32.67"/><path class="cls-8" d="M874.49,738.83s21.28-50.2,64.06-39.76"/><path class="cls-8" d="M1061.72,585.58s27.6-26,18.63-62.36c0,0,28.8,65.93,45.53,57"/><path class="cls-8" d="M1208,960.58c40.35,5.89,87.51,8.66,123.55-13.11,42.1-25.44,77.3-57.48,85.47-101.65a108.56,108.56,0,0,0,1.77-20.67,121.17,121.17,0,0,0-1.44-17.64c-6.57-43-29.2-122.57-90.6-92.79-10.31,5-22.23,16.64-25.53,29.07-1.84,6.91-1,14.06,4.23,20.46,8.52,10.39,17.33,10.47,23,5.67,7.32-6.17,9.48-20.41-.81-31.07,20.68,11.24,36.54,33.77,27.16,50.49-3.14,5.63-9.14,10.61-18.89,14.24-1.27.48-2.61.94-4,1.37a41.19,41.19,0,0,1-33.43-3.9c-15.39-8.81-26.46-26.47-28.82-44.47a55.71,55.71,0,0,1,4.85-31.59,61.4,61.4,0,0,1,6.59-10.8c14.57-19.24,40.29-31.18,64.73-32.43,37.21-1.9,66.82,21.77,85.73,51.9,8.34,13.3,13.75,28.64,16.76,44.91a189.62,189.62,0,0,1,3,36.54,246.52,246.52,0,0,1-17,86.52c-16.33,40.82-62,74-102.68,85.58-42.56,12.12-80.69,1.65-120.55-2.53"/><path class="cls-8" d="M1354.79,789.32h0a512.1,512.1,0,0,0,64,35.81"/><path class="cls-8" d="M1301.19,743.77a230.53,230.53,0,0,0,27.26,26.13"/><path class="cls-8" d="M1241.32,695.81a116.21,116.21,0,0,1-4.26-19.33s-26.43-61.9-22.12-77.42l18.25-31.74,27.1,25.55,10.84-30.19,27.34,37.16s5.56,69.58-25.79,82.77c0,0-1.43,12,8.12,31.36"/><path class="cls-8" d="M1417,845.8a465.62,465.62,0,0,1-81.09-42.22"/><path class="cls-8" d="M1214.94,599.06a208.9,208.9,0,0,1-7-36.85c-3.4-32.85-1.19-80.88,31.43-114.89,0,0,41,50.15,55.8,101.34,5.1,17.6,7.11,35.33,3.28,51.18"/><path class="cls-8" d="M1208,562.21s40.44-55.4,87.22-13.55h0"/><path class="cls-8" d="M1448.25,778.58h0c.82-1.16,43.18-61.47,9.45-161,0,0-60.39-56.39-51.87-88.91l32,19V513.9l26.81,27.1,14.71-27.1s31.74,72,5.42,96c0,0,38.93,157.55-33.57,205.17"/><path class="cls-8" d="M1405.84,528.58s-1.69-5.62-3.81-14.71c-6.94-29.81-18.48-96.94,10-125.42,0,0,56,62.19,66,109.14a59.79,59.79,0,0,1,1.4,16.28"/><path class="cls-8" d="M1402,513.9s23.46-61.22,76-16.28"/></g></g><g id="litwick"><g id="fill-2" data-name="fill"><path class="cls-9" d="M758.23,1311.45c.91.84,45.82,42.78,37.39,60.41s-42.31-23.31-43-24.2C754.81,1334.43,756.72,1321.91,758.23,1311.45Z"/><path class="cls-10" d="M778.2,1186.37c5,53.07-2.77,82.88-16.09,96.24h0c-33.22,33.31-101-35.72-91.91-101.21,0,0-39.48,141.67-102.19,83.61,0,0-56.33,94.36-105.94,62.64-5.69-3.63-11.29-8.93-16.71-16.22-8-10.76-15.61-25.88-22.51-46.42-31.53-93.88-7.68-153.1,27.17-187.6-1.57,1.79-62.69,72.64,128.44,72.64,192.35,0,133.66-87.93,132.92-89C745.65,1083.76,772.2,1122.46,778.2,1186.37Z"/><path class="cls-11" d="M737.75,1418s63.68,66.46-6,94.33-49.93-37.54-121.16,4.26-62.71-34.87-135.48-6.19-79.8-81.83-19.77-92.4l1.52-.21c-3.31-23.44-.59-52.1,2-70.73h0c1.62-11.68,3.2-19.41,3.2-19.41,49.62,31.69,106-62.67,106-62.67,62.71,58.06,102.19-83.61,102.19-83.61-9.12,65.49,58.69,134.52,91.91,101.21-.06.47-1.45,12-3.88,28.83-1.51,10.46-3.42,23-5.65,36.21C748.55,1371.47,743.47,1397.56,737.75,1418ZM667.11,1308.4c0-13.12-6.77-24-15.52-25.57a8.31,8.31,0,0,0-1-.15h-1.88c-9.55.46-17.2,11.83-17.2,25.77,0,14.24,8,25.78,17.81,25.78S667.11,1322.64,667.11,1308.4Z"/><path class="cls-12" d="M711.38,1061c.74,1.11,59.43,89-132.92,89-191.13,0-130-70.85-128.44-72.64h0c22.93-22.61,50.57-34.61,70.38-38.8l2.68-.16c2.19,36.82,21.94,58.35,70.85,37.35,24.28-10.46,40.1-24.6,49.73-40.72,23.5,4.26,47,12.23,67.71,26Z"/><path class="cls-6" d="M651.59,1282.83c8.75,1.62,15.52,12.45,15.52,25.57,0,14.24-8,25.78-17.81,25.78s-17.81-11.54-17.81-25.78c0-13.94,7.65-25.31,17.2-25.77a11,11,0,1,0,2.9.2Z"/><path d="M651.59,1282.83a11,11,0,1,1-2.9-.2h1.88A8.36,8.36,0,0,1,651.59,1282.83Z"/><path d="M650.13,1282.64h-.76A3.86,3.86,0,0,1,650.13,1282.64Z"/><path d="M649.22,1282.61h0Z"/><path class="cls-4" d="M607.49,852.76s79,110.64,36.17,182.25c-9.64,16.12-25.45,30.26-49.73,40.75-48.9,21-68.66-.5-70.85-37.32C519.34,975.76,566.52,868.86,607.49,852.76Zm-13.56,188.52c33.27-31.36,0-97.94,0-97.94C558.3,967.76,560.66,1072.63,593.93,1041.28Z"/><path class="cls-3" d="M593.93,943.34s33.27,66.58,0,97.94S558.3,967.76,593.93,943.34Z"/><path class="cls-9" d="M462.07,1327.66s-1.58,7.73-3.2,19.41h0c-.5,1.22-18.19,44-43.95,35.6-26.13-8.52,30.45-71.26,30.45-71.26A63.42,63.42,0,0,0,462.07,1327.66Z"/><path class="cls-8" d="M450,1077.38c22.93-22.62,50.57-34.62,70.38-38.81"/><path class="cls-8" d="M762.11,1282.62c-33.22,33.31-101-35.72-91.91-101.21,0,0-39.48,141.67-102.19,83.61,0,0-56.33,94.36-105.94,62.64-5.69-3.63-11.29-8.93-16.71-16.22-8-10.76-15.61-25.88-22.51-46.42-31.53-93.89-7.68-153.11,27.17-187.61"/><path class="cls-8" d="M711.38,1061c34.27,22.79,60.82,61.45,66.82,125.36,5,53.07-2.77,82.88-16.09,96.24"/><path class="cls-8" d="M643.66,1035c23.5,4.26,47,12.23,67.71,26"/><path class="cls-8" d="M450,1077.38h0c-1.57,1.79-62.69,72.64,128.44,72.64,192.35,0,133.66-87.93,132.92-89h0"/><path class="cls-8" d="M523.08,1038.41c-3.74-62.65,43.44-169.55,84.41-185.65,0,0,79,110.64,36.17,182.25-9.64,16.12-25.45,30.26-49.73,40.75C545,1096.76,525.27,1075.23,523.08,1038.41Z"/><path class="cls-8" d="M762.11,1282.61h0c-.06.47-1.45,12-3.88,28.83-1.51,10.46-3.42,23-5.65,36.21-4,23.81-9.11,49.9-14.83,70.38-5.35,19.15-11.26,33.4-17.38,36.27"/><path class="cls-8" d="M458.86,1347.1c-2.59,18.63-5.31,47.29-2,70.73,2.35,16.56,7.71,30.51,18.25,36.48"/><path class="cls-8" d="M462.07,1327.66s-1.58,7.73-3.2,19.41"/><path class="cls-8" d="M737.75,1418s63.68,66.46-6,94.33-49.93-37.54-121.16,4.26-62.71-34.87-135.48-6.19-79.8-81.83-19.77-92.4"/><path class="cls-8" d="M758.22,1311.44h0c.91.84,45.82,42.78,37.39,60.41s-42.31-23.31-43-24.2h0"/><path class="cls-8" d="M445.36,1311.44s-56.58,62.74-30.45,71.26c25.76,8.39,43.45-34.38,44-35.6h0"/><path class="cls-8" d="M554.85,1343.85s-43.36,26.63,20.9,24.61,27.1-24.61,27.1-24.61"/><path class="cls-8" d="M650.57,1282.68a8.31,8.31,0,0,1,1,.15c8.75,1.62,15.52,12.45,15.52,25.57,0,14.24-8,25.78-17.81,25.78s-17.81-11.54-17.81-25.78c0-13.94,7.65-25.31,17.2-25.77"/><path class="cls-8" d="M650.57,1282.68a8.31,8.31,0,0,1,1,.15,11,11,0,1,1-2.9-.2h.53"/><path class="cls-8" d="M649.37,1282.61h.76"/><path class="cls-8" d="M593.93,943.34s33.27,66.58,0,97.94S558.3,967.76,593.93,943.34Z"/></g></g><g id="lampent"><g id="fill-3" data-name="fill"><path class="cls-2" d="M680.63,305.68S658.34,530.68,489.48,609L477.3,590.78S672.86,441.16,611.73,287.87C611.73,287.87,654.31,280.9,680.63,305.68Z"/><path class="cls-2" d="M368.5,601c16.45-21.21,44.74-45.77,90-52.52a171.92,171.92,0,0,1,31-1.7,239.94,239.94,0,0,1-20.64,31.39l8.41,12.59L489.45,609l19.75,29.56c39.18-14.71,63.79-3.73,63.79-3.73,1.55,28-40.26,64.63-40.26,64.63,21.16,44.39,0,61.17,0,61.17-14.42,12.65-59.87-17.81-59.87-17.81-27.33,28.9-82,13.93-82,13.93-1-26.32,45.72-71.22,45.72-71.22l-20.19-35.39-10.17-17.82A308.06,308.06,0,0,1,349,634.86h0S354.41,619.16,368.5,601Z"/><path class="cls-13" d="M558.31,342.45c16.53,28.93-31.67,63.76-60.82,81.42-20.57-44-60.95-68.14-60.95-68.14,52.67-17.92,96.11-25.54,114.12-19C553.19,338.6,555.75,340.5,558.31,342.45Z"/><path class="cls-2" d="M550.66,336.74c-18-6.55-61.45,1.07-114.12,19A833.5,833.5,0,0,0,329.47,401.2c-13.13,6.67-26.21,13.75-39,21.2a636.46,636.46,0,0,0-72.12,48.17h0c-37.34,29.15-67.7,61.33-83.91,94.84,0,0-40.65-121.94,97.55-267.1,0,0-53.42-94.06-27.88-139.35,0,0,67.36,7,99.88,102.19C304,261.16,405,229.74,550.66,336.74Z"/><path class="cls-5" d="M497.49,423.87c14.65,31.37,19.25,72.85-8,122.93a171.92,171.92,0,0,0-31,1.7s-.07-49.28-30.27-55.08-48.77-26.71-47.61-54.58-51.16-37.65-51.16-37.65a833.5,833.5,0,0,1,107.07-45.46S476.92,379.84,497.49,423.87Zm-55.81,12.26c6.74-7.17,3.79-20.88-6.58-30.64-9.52-9-22-11.46-29.18-6.26-.25.17-.49.36-.73.56s-.68.65-1,1l-.05.06c-.23.25-.45.5-.65.76-5.88,7.34-2.78,20.45,7.23,29.87C421.07,441.19,435,443.29,441.68,436.13Z"/><path class="cls-4" d="M428.24,493.42c30.2,5.8,30.27,55.08,30.27,55.08-45.27,6.75-73.56,31.31-90,52.52-1,0-75.73-3.54-56.83-68.12,19-65,15.14-79.35-21.24-110.51,12.83-7.45,25.91-14.53,39-21.2,0,0,52.32,9.78,51.16,37.65S398.05,487.61,428.24,493.42ZM383,559.73c25.55-5.93-13.33-49.48-34-48C349,511.7,357.4,565.65,383,559.73Z"/><path d="M419.72,400.27a11,11,0,1,1-16.25,1.29c.2-.26.42-.51.65-.76s.7-.68,1.07-1,.48-.39.73-.56A11,11,0,0,1,419.72,400.27Z"/><path class="cls-2" d="M406.18,632.34l10.17,17.82c-61.2,39.21-146.67,97.61-164.67,174.63-5.78,24.7-4.33,74.17,27.89,83.62,17.31,5.07,26.9.89,33-17.84,11.47-35.12-30.32-39.82,1.54-69.74,46.93-44.07,89.42,3.06,83.1,51.47-6.69,51.15-51.93,108.13-108,100.11-77-11-94.16-107.8-75.1-170.37C239.79,717.84,327.41,661.18,406.18,632.34Z"/><path d="M405.19,399.79c-.37.32-.73.65-1.07,1l.05-.06A13.05,13.05,0,0,1,405.19,399.79Z"/><path class="cls-6" d="M410.7,431.43c-10-9.42-13.11-22.53-7.23-29.87a11,11,0,1,0,2.45-2.33c7.2-5.2,19.66-2.7,29.18,6.26,10.37,9.76,13.32,23.47,6.58,30.64S421.07,441.19,410.7,431.43Z"/><path class="cls-3" d="M349,511.7c20.63-1.45,59.51,42.1,34,48S349,511.7,349,511.7Z"/><path class="cls-5" d="M368.5,601C354.41,619.16,349,634.85,349,634.85h0c-61.5-3.51-94.88-29.35-112.73-59.54-27.61-46.66-18.08-103.72-17.91-104.73h0a636,636,0,0,1,72.08-48.18c36.38,31.16,40.27,45.48,21.24,110.51C292.77,597.48,367.47,601,368.5,601Zm-84.95-71.69c6.74-7.16,3.79-20.88-6.58-30.63-9.74-9.16-22.55-11.57-29.65-5.92l-.39.32c-.14.12-.28.24-.42.38s-.32.3-.48.47h0c-.23.25-.45.51-.66.77-5.87,7.35-2.77,20.45,7.24,29.87C262.94,534.39,276.86,536.5,283.55,529.33Z"/><path d="M261.59,493.47a11,11,0,1,1-16.26,1.3c.21-.26.43-.52.66-.77l.52-.52c.14-.14.28-.26.42-.38l.39-.32A11,11,0,0,1,261.59,493.47Z"/><path class="cls-14" d="M247.32,492.78l-.39.32Z"/><path d="M246.51,493.48,246,494h0A6.33,6.33,0,0,1,246.51,493.48Z"/><path class="cls-6" d="M245.33,494.77a11,11,0,1,0,2-2c7.1-5.65,19.91-3.24,29.65,5.92,10.37,9.75,13.32,23.47,6.58,30.63s-20.61,5.06-31-4.69C242.56,515.22,239.46,502.12,245.33,494.77Z"/><path class="cls-13" d="M218.35,470.58c-.17,1-9.7,58.07,17.91,104.74-43.91,15.71-125.95,39.76-101.82-9.9C150.65,531.91,181,499.73,218.35,470.58Z"/><path class="cls-8" d="M218.35,470.58c-37.34,29.15-67.7,61.33-83.91,94.84-24.13,49.66,57.91,25.61,101.82,9.9"/><path class="cls-8" d="M497.49,423.87c29.15-17.66,77.35-52.49,60.82-81.42-1.43-2.5-4-4.4-7.65-5.71-18-6.55-61.45,1.07-114.12,19A833.5,833.5,0,0,0,329.47,401.2c-13.13,6.67-26.21,13.75-39,21.2a636.46,636.46,0,0,0-72.12,48.17"/><path class="cls-8" d="M134.44,565.42S93.79,443.48,232,298.32c0,0-53.42-94.06-27.88-139.35,0,0,67.36,7,99.88,102.19,0,0,101-31.42,246.67,75.58,2.53,1.86,5.09,3.76,7.65,5.71"/><path class="cls-8" d="M218.35,470.57h0c-.17,1-9.7,58.07,17.91,104.74,17.85,30.19,51.23,56,112.73,59.54a308.06,308.06,0,0,0,57.19-2.52l10.17,17.82,20.19,35.39s-46.75,44.91-45.68,71.23c0,0,54.71,15,82.07-13.93,0,0,45.42,30.46,59.87,17.81,0,0,21.16-16.78,0-61.17,0,0,41.81-36.61,40.26-64.63,0,0-24.61-11-63.79,3.73L489.52,609l-12.18-18.24-8.48-12.59a239.59,239.59,0,0,0,20.59-31.39c27.26-50.08,22.66-91.56,8-122.93-20.57-44-60.95-68.14-60.95-68.14"/><path class="cls-8" d="M349,634.85s5.42-15.69,19.51-33.83c16.45-21.21,44.74-45.77,90-52.52a171.92,171.92,0,0,1,31-1.7"/><path class="cls-8" d="M477.3,590.78S672.86,441.16,611.73,287.87c0,0,42.58-7,68.9,17.81,0,0-22.29,225-191.15,303.34"/><path class="cls-8" d="M406.18,632.34c-78.77,28.84-166.39,85.5-192.06,169.7-19.06,62.57-1.87,159.37,75.1,170.37,56.07,8,101.31-49,108-100.11,6.32-48.41-36.17-95.54-83.1-51.47-31.86,29.92,9.93,34.62-1.54,69.74-6.11,18.73-15.7,22.91-33,17.84-32.23-9.44-33.72-58.92-27.9-83.62,18-77,103.47-135.42,164.67-174.63"/><path class="cls-8" d="M368.51,601h0c-1,0-75.73-3.54-56.83-68.12,19-65,15.14-79.35-21.24-110.51"/><path class="cls-8" d="M458.51,548.5s-.07-49.28-30.27-55.08-48.77-26.71-47.61-54.58-51.16-37.65-51.16-37.65"/><path class="cls-8" d="M349,511.7s8.41,53.95,34,48S369.62,510.25,349,511.7Z"/><path class="cls-8" d="M405.92,399.23c7.2-5.2,19.66-2.7,29.18,6.26,10.37,9.76,13.32,23.47,6.58,30.64s-20.61,5.06-31-4.7c-10-9.42-13.11-22.53-7.23-29.87"/><path class="cls-8" d="M404.12,400.8l.05-.06c.32-.35.65-.68,1-1"/><path class="cls-8" d="M405.92,399.23a11,11,0,1,1-2.45,2.33"/><path class="cls-8" d="M246.93,493.1l.39-.32c7.1-5.65,19.91-3.24,29.65,5.92,10.37,9.75,13.32,23.47,6.58,30.63s-20.61,5.06-31-4.69c-10-9.42-13.11-22.52-7.24-29.87"/><path class="cls-8" d="M246.93,493.1l.39-.32a11,11,0,1,1-2,2"/><path class="cls-8" d="M246,494h0c.16-.17.32-.33.48-.47"/></g></g></g></g></svg>