<svg xmlns="http://www.w3.org/2000/svg" viewBox="0 0 561.77 824.2"><defs><style>#lampent .cls-1{fill:#181a28;}#lampent .cls-2{fill:#2e3242;}#lampent .cls-3{fill:#8490bc;}#lampent .cls-4{fill:#2e307b;}#lampent .cls-5{fill:#ccb631;}#lampent .cls-6{fill:#8a89c2;}#lampent .cls-7{fill:#9f702a;}#lampent .cls-8{fill:none;stroke:#000;stroke-linecap:round;stroke-linejoin:round;stroke-width:10px;}</style></defs><title>fill (2)</title><g id="Layer_2" data-name="Layer 2"><g id="lampent"><g id="fill"><path class="cls-1" d="M556.77,151.71s-22.29,225-191.15,303.34l-12.18-18.24S549,287.19,487.87,133.9C487.87,133.9,530.45,126.93,556.77,151.71Z"/><path class="cls-1" d="M244.64,447.05c16.45-21.21,44.74-45.77,90-52.52a171.26,171.26,0,0,1,31-1.7A241.33,241.33,0,0,1,345,424.22l8.41,12.59,12.18,18.24,19.75,29.56c39.18-14.71,63.79-3.73,63.79-3.73,1.55,28-40.26,64.63-40.26,64.63,21.16,44.39,0,61.17,0,61.17C394.45,619.33,349,588.87,349,588.87,321.67,617.77,267,602.8,267,602.8c-1-26.32,45.72-71.22,45.72-71.22l-20.19-35.39-10.17-17.82a309.08,309.08,0,0,1-57.19,2.52h0S230.55,465.19,244.64,447.05Z"/><path class="cls-2" d="M434.45,188.48c16.53,28.93-31.67,63.76-60.82,81.42-20.57-44-60.95-68.14-60.95-68.14,52.67-17.92,96.11-25.54,114.12-19C429.33,184.63,431.89,186.53,434.45,188.48Z"/><path class="cls-1" d="M426.8,182.77c-18-6.55-61.45,1.07-114.12,19a832.7,832.7,0,0,0-107.07,45.46c-13.13,6.67-26.21,13.75-39,21.2A634.78,634.78,0,0,0,94.49,316.6h0c-37.34,29.15-67.7,61.33-83.91,94.84,0,0-40.65-121.94,97.55-267.1,0,0-53.42-94.06-27.88-139.35,0,0,67.36,7,99.88,102.19C180.13,107.19,281.09,75.77,426.8,182.77Z"/><path class="cls-3" d="M373.63,269.9c14.65,31.37,19.25,72.85-8,122.93a171.26,171.26,0,0,0-31,1.7s-.07-49.28-30.27-55.08-48.77-26.71-47.61-54.58-51.16-37.65-51.16-37.65a832.7,832.7,0,0,1,107.07-45.46S353.06,225.87,373.63,269.9Zm-55.81,12.26c6.74-7.17,3.79-20.88-6.58-30.64-9.52-9-22-11.46-29.18-6.26-.25.17-.49.36-.73.56a11.37,11.37,0,0,0-1,1l-.05.06c-.23.25-.45.5-.65.76-5.88,7.34-2.78,20.45,7.23,29.87C297.21,287.22,311.09,289.32,317.82,282.16Z"/><path class="cls-4" d="M304.38,339.45c30.2,5.8,30.27,55.08,30.27,55.08-45.27,6.75-73.56,31.31-90,52.52-1-.05-75.73-3.54-56.83-68.12,19-65,15.14-79.35-21.24-110.51,12.83-7.45,25.91-14.53,39-21.2,0,0,52.32,9.78,51.16,37.65S274.19,333.64,304.38,339.45Zm-45.29,66.31c25.55-5.93-13.33-49.48-34-48C225.13,357.73,233.54,411.68,259.09,405.76Z"/><path d="M295.86,246.3a11,11,0,1,1-16.25,1.29c.2-.26.42-.51.65-.76a12.77,12.77,0,0,1,1.07-1c.24-.2.48-.39.73-.56A11,11,0,0,1,295.86,246.3Z"/><path class="cls-1" d="M282.32,478.37l10.17,17.82c-61.2,39.21-146.67,97.61-164.67,174.63-5.78,24.7-4.33,74.17,27.89,83.62,17.31,5.07,26.9.89,33-17.84,11.47-35.12-30.32-39.82,1.54-69.74,46.93-44.07,89.42,3.06,83.1,51.47-6.69,51.15-51.93,108.13-108,100.11-77-11-94.16-107.8-75.1-170.37C115.93,563.87,203.55,507.21,282.32,478.37Z"/><path d="M281.33,245.82a12.77,12.77,0,0,0-1.07,1l.05-.06A11.37,11.37,0,0,1,281.33,245.82Z"/><path class="cls-5" d="M286.84,277.46c-10-9.42-13.11-22.53-7.23-29.87a11,11,0,1,0,2.45-2.33c7.2-5.2,19.66-2.7,29.18,6.26,10.37,9.76,13.32,23.47,6.58,30.64S297.21,287.22,286.84,277.46Z"/><path class="cls-6" d="M225.13,357.73c20.63-1.45,59.51,42.1,34,48S225.13,357.73,225.13,357.73Z"/><path class="cls-3" d="M244.64,447.05c-14.09,18.14-19.51,33.83-19.51,33.83h0c-61.5-3.51-94.88-29.35-112.73-59.54C84.79,374.68,94.32,317.62,94.49,316.61h0a634.78,634.78,0,0,1,72.08-48.18c36.38,31.16,40.27,45.48,21.24,110.51C168.91,443.51,243.61,447,244.64,447.05Zm-84.95-71.69c6.74-7.16,3.79-20.88-6.58-30.63-9.74-9.16-22.55-11.57-29.65-5.92l-.39.32c-.14.12-.28.24-.42.38s-.32.3-.48.47l0,0a9.3,9.3,0,0,0-.66.77c-5.87,7.35-2.77,20.45,7.24,29.87C139.08,380.42,153,382.53,159.69,375.36Z"/><path d="M137.73,339.5a11,11,0,1,1-16.26,1.3,9.3,9.3,0,0,1,.66-.77l.52-.52c.14-.14.28-.26.42-.38l.39-.32A11,11,0,0,1,137.73,339.5Z"/><path class="cls-7" d="M123.46,338.81l-.39.32Z"/><path d="M122.65,339.51l-.52.52,0,0C122.33,339.81,122.49,339.65,122.65,339.51Z"/><path class="cls-5" d="M121.47,340.8a11,11,0,1,0,2-2c7.1-5.65,19.91-3.24,29.65,5.92,10.37,9.75,13.32,23.47,6.58,30.63s-20.61,5.06-31-4.69C118.7,361.25,115.6,348.15,121.47,340.8Z"/><path class="cls-2" d="M94.49,316.61c-.17,1-9.7,58.07,17.91,104.74-43.91,15.71-125.95,39.76-101.82-9.9C26.79,377.94,57.15,345.76,94.49,316.61Z"/><path class="cls-8" d="M94.49,316.61c-37.34,29.15-67.7,61.33-83.91,94.84-24.13,49.66,57.91,25.61,101.82,9.9"/><path class="cls-8" d="M373.63,269.9c29.15-17.66,77.35-52.49,60.82-81.42-1.43-2.5-4-4.4-7.65-5.71-18-6.55-61.45,1.07-114.12,19a832.7,832.7,0,0,0-107.07,45.46c-13.13,6.67-26.21,13.75-39,21.2A634.78,634.78,0,0,0,94.49,316.6"/><path class="cls-8" d="M10.58,411.45s-40.65-121.94,97.55-267.1c0,0-53.42-94.06-27.88-139.35,0,0,67.36,7,99.88,102.19,0,0,101-31.42,246.67,75.58,2.53,1.86,5.09,3.76,7.65,5.71"/><path class="cls-8" d="M94.49,316.6h0c-.17,1-9.7,58.07,17.91,104.74,17.85,30.19,51.23,56,112.73,59.54a309.08,309.08,0,0,0,57.19-2.52l10.17,17.82,20.19,35.39S265.93,576.48,267,602.8c0,0,54.71,15,82.07-13.93,0,0,45.42,30.46,59.87,17.81,0,0,21.16-16.78,0-61.17,0,0,41.81-36.61,40.26-64.63,0,0-24.61-11-63.79,3.73l-19.75-29.56-12.18-18.24L345,424.22a241.33,241.33,0,0,0,20.59-31.39c27.26-50.08,22.66-91.56,8-122.93-20.57-44-60.95-68.14-60.95-68.14"/><path class="cls-8" d="M225.13,480.88s5.42-15.69,19.51-33.83c16.45-21.21,44.74-45.77,90-52.52a171.26,171.26,0,0,1,31-1.7"/><path class="cls-8" d="M353.44,436.81S549,287.19,487.87,133.9c0,0,42.58-7,68.9,17.81,0,0-22.29,225-191.15,303.34"/><path class="cls-8" d="M282.32,478.37c-78.77,28.84-166.39,85.5-192.06,169.7-19.06,62.57-1.87,159.37,75.1,170.37,56.07,8,101.31-49,108-100.11,6.32-48.41-36.17-95.54-83.1-51.47-31.86,29.92,9.93,34.62-1.54,69.74-6.11,18.73-15.7,22.91-33,17.84C123.49,745,122,695.52,127.82,670.82c18-77,103.47-135.42,164.67-174.63"/><path class="cls-8" d="M244.65,447.05h0c-1-.05-75.73-3.54-56.83-68.12,19-65,15.14-79.35-21.24-110.51"/><path class="cls-8" d="M334.65,394.53s-.07-49.28-30.27-55.08-48.77-26.71-47.61-54.58-51.16-37.65-51.16-37.65"/><path class="cls-8" d="M225.13,357.73s8.41,53.95,34,48S245.76,356.28,225.13,357.73Z"/><path class="cls-8" d="M282.06,245.26c7.2-5.2,19.66-2.7,29.18,6.26,10.37,9.76,13.32,23.47,6.58,30.64s-20.61,5.06-31-4.7c-10-9.42-13.11-22.53-7.23-29.87"/><path class="cls-8" d="M280.26,246.83l.05-.06a11.37,11.37,0,0,1,1-1"/><path class="cls-8" d="M282.06,245.26a11,11,0,1,1-2.45,2.33"/><path class="cls-8" d="M123.07,339.13l.39-.32c7.1-5.65,19.91-3.24,29.65,5.92,10.37,9.75,13.32,23.47,6.58,30.63s-20.61,5.06-31-4.69c-10-9.42-13.11-22.52-7.24-29.87"/><path class="cls-8" d="M123.07,339.13l.39-.32a11,11,0,1,1-2,2"/><path class="cls-8" d="M122.13,340l0,0c.16-.17.32-.33.48-.47"/></g></g></g></svg>