<svg xmlns="http://www.w3.org/2000/svg" viewBox="0 0 398.66 686.65"><defs><style>#litwick .cls-1{fill:#e8e8ea;}#litwick .cls-2{fill:#fff;}#litwick .cls-3{fill:#d4d4dd;}#litwick .cls-4{fill:#6b76a3;}#litwick .cls-5{fill:#ccb631;}#litwick .cls-6{fill:#2e307b;}#litwick .cls-7{fill:#8a89c2;}#litwick .cls-8{fill:none;stroke:#000;stroke-linecap:round;stroke-linejoin:round;stroke-width:10px;}</style></defs><title>fill (3)</title><g id="Layer_2" data-name="Layer 2"><g id="litwick"><g id="fill"><path class="cls-1" d="M355.21,463.69c.91.84,45.82,42.78,37.39,60.41s-42.31-23.31-43-24.2C351.79,486.67,353.7,474.15,355.21,463.69Z"/><path class="cls-2" d="M375.18,338.61c5,53.07-2.77,82.88-16.09,96.24h0c-33.22,33.31-101-35.72-91.91-101.21,0,0-39.48,141.67-102.19,83.61,0,0-56.33,94.36-105.94,62.64-5.69-3.63-11.29-8.93-16.71-16.22-8-10.76-15.61-25.88-22.51-46.42C-11.7,323.37,12.15,264.15,47,229.65c-1.57,1.79-62.69,72.64,128.44,72.64,192.35,0,133.66-87.93,132.92-89C342.63,236,369.18,274.7,375.18,338.61Z"/><path class="cls-3" d="M334.73,570.28s63.68,66.46-6,94.33-49.93-37.54-121.16,4.26S144.86,634,72.09,662.68s-79.8-81.83-19.77-92.4l1.52-.21c-3.31-23.44-.59-52.1,2-70.73v0c1.62-11.68,3.2-19.41,3.2-19.41C108.66,511.62,165,417.26,165,417.26c62.71,58.06,102.19-83.61,102.19-83.61-9.12,65.49,58.69,134.52,91.91,101.21-.06.47-1.45,12-3.88,28.83-1.51,10.46-3.42,23-5.65,36.21C345.53,523.71,340.45,549.8,334.73,570.28ZM264.09,460.64c0-13.12-6.77-23.95-15.52-25.57a8.64,8.64,0,0,0-1-.15l-.44,0c-.25,0-.51,0-.76,0h-.15l-.53,0c-9.55.46-17.2,11.83-17.2,25.77,0,14.24,8,25.78,17.81,25.78S264.09,474.88,264.09,460.64Z"/><path class="cls-4" d="M308.36,213.25c.74,1.11,59.43,89-132.92,89-191.13,0-130-70.85-128.44-72.64l0,0C69.93,207,97.57,195,117.38,190.81l2.68-.16C122.25,227.47,142,249,190.91,228c24.28-10.46,40.1-24.6,49.73-40.72,23.5,4.26,47,12.23,67.71,26Z"/><path class="cls-5" d="M248.57,435.07c8.75,1.62,15.52,12.45,15.52,25.57,0,14.24-8,25.78-17.81,25.78s-17.81-11.54-17.81-25.78c0-13.94,7.65-25.31,17.2-25.77a11,11,0,1,0,2.9.2Z"/><path d="M248.57,435.07a11,11,0,1,1-2.9-.2l.53,0h.15c.25,0,.51,0,.76,0l.44,0A9,9,0,0,1,248.57,435.07Z"/><path d="M247.11,434.88c-.25,0-.51,0-.76,0C246.6,434.85,246.86,434.86,247.11,434.88Z"/><path d="M246.2,434.85l-.53,0Z"/><path class="cls-6" d="M204.47,5s79,110.64,36.17,182.25C231,203.37,215.19,217.51,190.91,228c-48.9,21.05-68.66-.5-70.85-37.32C116.32,128,163.5,21.1,204.47,5ZM190.91,193.52c33.27-31.36,0-97.94,0-97.94C155.28,120,157.64,224.87,190.91,193.52Z"/><path class="cls-7" d="M190.91,95.58s33.27,66.58,0,97.94S155.28,120,190.91,95.58Z"/><path class="cls-1" d="M59.05,479.9s-1.58,7.73-3.2,19.41v0c-.5,1.22-18.19,44-43.95,35.6-26.13-8.52,30.45-71.26,30.45-71.26C47.76,471,53.36,476.27,59.05,479.9Z"/><path class="cls-8" d="M47,229.62C69.93,207,97.57,195,117.38,190.81"/><path class="cls-8" d="M359.09,434.86c-33.22,33.31-101-35.72-91.91-101.21,0,0-39.48,141.67-102.19,83.61,0,0-56.33,94.36-105.94,62.64-5.69-3.63-11.29-8.93-16.71-16.22-8-10.76-15.61-25.88-22.51-46.42C-11.7,323.37,12.15,264.15,47,229.65"/><path class="cls-8" d="M308.36,213.25c34.27,22.79,60.82,61.45,66.82,125.36,5,53.07-2.77,82.88-16.09,96.24"/><path class="cls-8" d="M240.64,187.25c23.5,4.26,47,12.23,67.71,26"/><path class="cls-8" d="M47,229.62l0,0c-1.57,1.79-62.69,72.64,128.44,72.64,192.35,0,133.66-87.93,132.92-89h0"/><path class="cls-8" d="M120.06,190.65C116.32,128,163.5,21.1,204.47,5c0,0,79,110.64,36.17,182.25C231,203.37,215.19,217.51,190.91,228,142,249,122.25,227.47,120.06,190.65Z"/><path class="cls-8" d="M359.09,434.85h0c-.06.47-1.45,12-3.88,28.83-1.51,10.46-3.42,23-5.65,36.21-4,23.81-9.11,49.9-14.83,70.38-5.35,19.15-11.26,33.4-17.38,36.27"/><path class="cls-8" d="M55.84,499.34c-2.59,18.63-5.31,47.29-2,70.73,2.35,16.56,7.71,30.51,18.25,36.48"/><path class="cls-8" d="M59.05,479.9s-1.58,7.73-3.2,19.41"/><path class="cls-8" d="M334.73,570.28s63.68,66.46-6,94.33-49.93-37.54-121.16,4.26S144.86,634,72.09,662.68s-79.8-81.83-19.77-92.4"/><path class="cls-8" d="M355.2,463.68h0c.91.84,45.82,42.78,37.39,60.41s-42.31-23.31-43-24.2h0"/><path class="cls-8" d="M42.34,463.68s-56.58,62.74-30.45,71.26c25.76,8.39,43.45-34.38,44-35.6v0"/><path class="cls-8" d="M151.83,496.09s-43.36,26.63,20.9,24.61,27.1-24.61,27.1-24.61"/><path class="cls-8" d="M247.55,434.92a8.64,8.64,0,0,1,1,.15c8.75,1.62,15.52,12.45,15.52,25.57,0,14.24-8,25.78-17.81,25.78s-17.81-11.54-17.81-25.78c0-13.94,7.65-25.31,17.2-25.77"/><path class="cls-8" d="M247.55,434.92a9,9,0,0,1,1,.15,11,11,0,1,1-2.9-.2l.53,0"/><path class="cls-8" d="M246.35,434.85c.25,0,.51,0,.76,0"/><path class="cls-8" d="M190.91,95.58s33.27,66.58,0,97.94S155.28,120,190.91,95.58Z"/></g></g></g></svg>